<?xml version="1.0" encoding="utf-8"?>
<!-- Generator: Adobe Illustrator 19.1.0, SVG Export Plug-In . SVG Version: 6.00 Build 0)  -->
<svg version="1.1" id="Layer_1" xmlns="http://www.w3.org/2000/svg" xmlns:xlink="http://www.w3.org/1999/xlink" x="0px" y="0px"
	 viewBox="0 0 612 505" enable-background="new 0 0 612 505" xml:space="preserve">
<g>
	<path fill="#FFFFFF" d="M412.5,68.6c2.7-3.2,4.3-7.4,4.3-11.9c0-10.3-8.4-18.7-18.7-18.7c-4.5,0-8.7,1.6-11.9,4.3
		c-22.4-16.9-50.3-27-80.5-27c-73.8,0-133.8,60-133.8,133.8c0,73.8,60,133.8,133.8,133.8c73.8,0,133.8-60,133.8-133.8
		C439.4,118.8,429.4,91,412.5,68.6z M305.6,277.5c-70.8,0-128.4-57.6-128.4-128.4c0-70.8,57.6-128.4,128.4-128.4
		c28.8,0,55.4,9.5,76.9,25.6c-2,3-3.2,6.6-3.2,10.4c0,10.3,8.4,18.7,18.7,18.7c3.9,0,7.5-1.2,10.4-3.2
		c16.1,21.4,25.6,48.1,25.6,76.9C434.1,219.9,376.5,277.5,305.6,277.5z"/>
	<rect x="95.3" y="382.8" fill="#FFFFFF" width="5.5" height="104.4"/>
	<path fill="#FFFFFF" d="M179.2,380.3c-31.3,0-55,23.6-55,54.8c0,31.3,23.6,54.8,55,54.8s55-23.4,55-54.8
		C234.1,403.9,210.5,380.3,179.2,380.3z M179.2,484.7c-28.2,0-49.4-21.3-49.4-49.6s21.3-49.6,49.4-49.6s49.4,21.3,49.4,49.6
		S207.3,484.7,179.2,484.7z"/>
	<path fill="#FFFFFF" d="M338.3,390.7c-11.8-9.7-26-10.4-33.3-10.4c-16.5,0-34.9,7.7-41.4,22.7h-0.4v-20.1h-5.5v104.4h5.5v-60.1
		c0-26.2,16.2-41.8,42.3-41.8c15.8,0,24.2,5.1,29.5,9.8c7.9,7.1,12.8,18.7,12.8,36.8v55.2h5.5v-55.2
		C353.5,413.4,348.6,399.4,338.3,390.7z"/>
	<rect x="384" y="382.8" fill="#FFFFFF" width="5.5" height="104.4"/>
	<path fill="#FFFFFF" d="M467.9,484.7c-26.6,0-49.4-20.1-49.4-49.6c0-14.2,5.9-28,14.4-35.7c10.8-9.6,20.5-14,35.3-14
		c20.5,0,38.6,11.4,45.7,31.3h6.1c-8.3-24.6-30.7-36.4-52-36.4c-31.7,0-55,24-55,55c0,32.5,24.6,54.6,55,54.6
		c24.8,0,44.5-14.2,51.8-35.5h-6.1C508.5,469.9,491.6,484.7,467.9,484.7z"/>
	<circle fill="#FFFFFF" cx="98" cy="350.5" r="6"/>
	<circle fill="#FFFFFF" cx="386.8" cy="350.5" r="6"/>
	<circle fill="#FFFFFF" cx="305.6" cy="149" r="54.5"/>
</g>
</svg>
